{"title":"Vaastav 1999 1CD DVDRip  [TG ENCODER]","uid":11081589,"size":729910278,"categoryP":"video","categoryS":"movies","magnet":"?xt=urn:btih:3f2b86f6523c2d8e3e286babde1e0990c095b361&amp;dn=Vaastav+1999+1CD+DVDRip++%5BTG+ENCODER%5D&amp;tr=udp%3A%2F%2Ftracker.openbittorrent.com%3A80&amp;tr=udp%3A%2F%2Fopen.demonii.com%3A1337&amp;tr=udp%3A%2F%2Ftracker.coppersurfer.tk%3A6969&amp;tr=udp%3A%2F%2Fexodus.desync.com%3A6969","seeders":3,"leechers":1,"uploader":"nasifhasan","files":4,"time":1411414746,"description":"Vaastav 1999 1CD DVDRip  [TG ENCODERS]\n\n[IMG]http://i.imgur.com/e3ArqQH.jpg[/IMG]\n\nMedia Information:\n\nFormat : AVI\nFormat/Info : Audio Video Interleave\nFormat profile : OpenDML\nFormat settings : rec\nFile size : 696 MiB\nDuration : 2h 25mn\nOverall bit rate : 671 Kbps\nWriting application : AVI-Mux GUI 1.17.8.3, Feb 16 201019:42:50\n\nVideo\nID : 0\nFormat : MPEG-4 Visual\nFormat profile : Advanced Simple@L5\nFormat settings, BVOP : 1\nFormat settings, QPel : No\nFormat settings, GMC : No warppoints\nFormat settings, Matrix : Default (H.263)\nCodec ID : XVID\nCodec ID/Hint : XviD\nDuration : 2h 25mn\nBit rate : 603 Kbps\nWidth : 608 pixels\nHeight : 288 pixels\nDisplay aspect ratio : 2.111\nFrame rate : 25.000 fps\nColor space : YUV\nChroma subsampling : 4:2:0\nBit depth : 8 bits\nScan type : Progressive\nCompression mode : Lossy\nBits/(Pixel*Frame) : 0.138\nStream size : 626 MiB (90%)\nWriting library : XviD 1.2.1 (UTC 2008-12-04)\n\nAudio\nID : 1\nFormat : MPEG Audio\nFormat version : Version 2\nFormat profile : Layer 3\nMode : Joint stereo\nMode extension : MS Stereo\nCodec ID : 55\nCodec ID/Hint : MP3\nDuration : 2h 25mn\nBit rate mode : Constant\nBit rate : 64.0 Kbps\nChannel(s) : 2 channels\nSampling rate : 24.0 KHz\nCompression mode : Lossy\nStream size : 66.4 MiB (10%)\nAlignment : Aligned on interleaves\nInterleave, duration : 947 ms (23.68 video frames)\nInterleave, preload duration : 216 ms\nTitle : Vaastav T80 2_0ch 192Kbps DELAY 0ms\nWriting library : LAME3.98r\n\nScreenshot:\n\n[IMG]http://i.imgur.com/IBilvj9.jpg[/IMG]\n\n[IMG]http://i.imgur.com/o8xdGDu.jpg[/IMG]\n\n[IMG]http://i.imgur.com/olCTOxM.jpg[/IMG]\n\n[IMG]http://i.imgur.com/xl3ShrO.jpg[/IMG]\n\n[IMG]http://i.imgur.com/uxoyDhJ.jpg[/IMG]\n\n[IMG]http://i.imgur.com/8CFOVPv.jpg[/IMG]\n\n[IMG]http://i.imgur.com/AWf6St1.jpg[/IMG]\n\n[IMG]http://i.imgur.com/PfpWywq.jpg[/IMG]\n\n[IMG]http://i.imgur.com/UxD9LvD.jpg[/IMG]\n\n[IMG]http://i.imgur.com/Eo0NfPJ.jpg[/IMG]\n\n[IMG]http://i.imgur.com/K0YQ8o4.jpg[/IMG]\n\n[IMG]http://i.imgur.com/AUyMFqB.jpg[/IMG]\n\n[IMG]http://i.imgur.com/PwfIhSY.jpg[/IMG]\n\n[IMG]http://i.imgur.com/SAoNmuf.jpg[/IMG]\n\n[IMG]http://i.imgur.com/7RpvgyV.jpg[/IMG]\n\n[IMG]http://i.imgur.com/voeBthy.jpg[/IMG]\n\n[IMG]http://i.imgur.com/lfh8Ik6.jpg[/IMG]\n\n\n[color=green][b]Seedbox seeding 24x7 @ 1Gbps \n[/b][/color]\n\n[url=https://www.ultraseedbox.com/aff.php?aff=270] [img]http://i.imgur.com/A4if5TP.png[/img] [/url]\n\n[IMG]http://i.imgur.com/VkQzViC.png[/IMG][/url]\n\n[color=red][b]Note : Please try to seed as much as you can since &quot;sharing brings joy&quot; ! [/b][/color]\n","torrent":{"xt":"urn:btih:3f2b86f6523c2d8e3e286babde1e0990c095b361","amp;dn":"Vaastav+1999+1CD+DVDRip++%5BTG+ENCODER%5D","amp;tr":["udp%3A%2F%2Ftracker.openbittorrent.com%3A80","udp%3A%2F%2Fopen.demonii.com%3A1337","udp%3A%2F%2Ftracker.coppersurfer.tk%3A6969","udp%3A%2F%2Fexodus.desync.com%3A6969"],"infoHash":"3f2b86f6523c2d8e3e286babde1e0990c095b361","infoHashBuffer":{"type":"Buffer","data":[63,43,134,246,82,60,45,142,62,40,107,171,222,30,9,144,192,149,179,97]},"announce":[],"urlList":[]}}